<mxfile host="app.diagrams.net" modified="2023-10-25T16:47:36.163Z" agent="Mozilla/5.0 (Windows NT 10.0; Win64; x64) AppleWebKit/537.36 (KHTML, like Gecko) Chrome/118.0.0.0 Safari/537.36" etag="50IvMGEdyPorjczyFVKQ" version="22.0.8" type="github">
  <diagram id="C5RBs43oDa-KdzZeNtuy" name="Page-1">
    <mxGraphModel dx="1050" dy="566" grid="1" gridSize="10" guides="1" tooltips="1" connect="1" arrows="1" fold="1" page="1" pageScale="1" pageWidth="827" pageHeight="1169" math="0" shadow="0">
      <root>
        <mxCell id="WIyWlLk6GJQsqaUBKTNV-0" />
        <mxCell id="WIyWlLk6GJQsqaUBKTNV-1" parent="WIyWlLk6GJQsqaUBKTNV-0" />
        <mxCell id="w8LmUuoSFp9fEpGe-iTt-2" value="" style="edgeStyle=orthogonalEdgeStyle;rounded=0;orthogonalLoop=1;jettySize=auto;html=1;" edge="1" parent="WIyWlLk6GJQsqaUBKTNV-1" source="w8LmUuoSFp9fEpGe-iTt-0" target="w8LmUuoSFp9fEpGe-iTt-1">
          <mxGeometry relative="1" as="geometry" />
        </mxCell>
        <mxCell id="w8LmUuoSFp9fEpGe-iTt-0" value="start" style="strokeWidth=2;html=1;shape=mxgraph.flowchart.start_1;whiteSpace=wrap;" vertex="1" parent="WIyWlLk6GJQsqaUBKTNV-1">
          <mxGeometry x="364" y="80" width="100" height="60" as="geometry" />
        </mxCell>
        <mxCell id="w8LmUuoSFp9fEpGe-iTt-4" value="" style="edgeStyle=orthogonalEdgeStyle;rounded=0;orthogonalLoop=1;jettySize=auto;html=1;" edge="1" parent="WIyWlLk6GJQsqaUBKTNV-1" source="w8LmUuoSFp9fEpGe-iTt-1" target="w8LmUuoSFp9fEpGe-iTt-3">
          <mxGeometry relative="1" as="geometry" />
        </mxCell>
        <mxCell id="w8LmUuoSFp9fEpGe-iTt-1" value="phi=3.14&lt;br&gt;integer r&lt;br&gt;float l" style="whiteSpace=wrap;html=1;strokeWidth=2;" vertex="1" parent="WIyWlLk6GJQsqaUBKTNV-1">
          <mxGeometry x="354" y="170" width="120" height="60" as="geometry" />
        </mxCell>
        <mxCell id="w8LmUuoSFp9fEpGe-iTt-6" value="" style="edgeStyle=orthogonalEdgeStyle;rounded=0;orthogonalLoop=1;jettySize=auto;html=1;" edge="1" parent="WIyWlLk6GJQsqaUBKTNV-1" source="w8LmUuoSFp9fEpGe-iTt-3" target="w8LmUuoSFp9fEpGe-iTt-5">
          <mxGeometry relative="1" as="geometry" />
        </mxCell>
        <mxCell id="w8LmUuoSFp9fEpGe-iTt-3" value="masukan jari-jari" style="shape=parallelogram;perimeter=parallelogramPerimeter;whiteSpace=wrap;html=1;fixedSize=1;strokeWidth=2;" vertex="1" parent="WIyWlLk6GJQsqaUBKTNV-1">
          <mxGeometry x="354" y="260" width="120" height="60" as="geometry" />
        </mxCell>
        <mxCell id="w8LmUuoSFp9fEpGe-iTt-8" value="" style="edgeStyle=orthogonalEdgeStyle;rounded=0;orthogonalLoop=1;jettySize=auto;html=1;" edge="1" parent="WIyWlLk6GJQsqaUBKTNV-1" source="w8LmUuoSFp9fEpGe-iTt-5" target="w8LmUuoSFp9fEpGe-iTt-7">
          <mxGeometry relative="1" as="geometry" />
        </mxCell>
        <mxCell id="w8LmUuoSFp9fEpGe-iTt-5" value="Luas=phi*r*r" style="whiteSpace=wrap;html=1;strokeWidth=2;" vertex="1" parent="WIyWlLk6GJQsqaUBKTNV-1">
          <mxGeometry x="354" y="350" width="120" height="60" as="geometry" />
        </mxCell>
        <mxCell id="w8LmUuoSFp9fEpGe-iTt-10" value="" style="edgeStyle=orthogonalEdgeStyle;rounded=0;orthogonalLoop=1;jettySize=auto;html=1;" edge="1" parent="WIyWlLk6GJQsqaUBKTNV-1" source="w8LmUuoSFp9fEpGe-iTt-7" target="w8LmUuoSFp9fEpGe-iTt-9">
          <mxGeometry relative="1" as="geometry" />
        </mxCell>
        <mxCell id="w8LmUuoSFp9fEpGe-iTt-7" value="tampilkan luas lingkaran" style="shape=parallelogram;perimeter=parallelogramPerimeter;whiteSpace=wrap;html=1;fixedSize=1;strokeWidth=2;" vertex="1" parent="WIyWlLk6GJQsqaUBKTNV-1">
          <mxGeometry x="354" y="440" width="120" height="60" as="geometry" />
        </mxCell>
        <mxCell id="w8LmUuoSFp9fEpGe-iTt-9" value="finish" style="strokeWidth=2;html=1;shape=mxgraph.flowchart.start_1;whiteSpace=wrap;" vertex="1" parent="WIyWlLk6GJQsqaUBKTNV-1">
          <mxGeometry x="364" y="530" width="100" height="60" as="geometry" />
        </mxCell>
      </root>
    </mxGraphModel>
  </diagram>
</mxfile>
